<svg xmlns="http://www.w3.org/2000/svg" width="172.715" height="172.715" viewBox="0 0 228.48722 228.48722"><g transform="translate(-76.918 -727.887)" stroke="#000"><circle cx="192.933" cy="840.21" r="87.146" fill="none" stroke-width="11.289"/><path d="M187.58 921.258c-16.626-1.018-32.625-7.28-45.836-17.939-3.85-3.106-10.78-10.282-13.742-14.23-12.16-16.206-17.98-36.852-15.984-56.694 1.902-18.9 10.1-36.212 23.49-49.602 17.65-17.65 42.02-26.16 66.747-23.305 18.605 2.147 35.504 10.462 48.712 23.967 4.569 4.671 6.552 7.123 9.895 12.233 8.94 13.665 13.206 28 13.213 44.403.006 13.377-2.462 24.081-8.298 35.98-14.514 29.594-45.016 47.22-78.198 45.187z" stroke-width="3.21591969"/></g></svg>