<svg xmlns="http://www.w3.org/2000/svg" width="590.058" height="200.885" viewBox="0 0 553.17946 188.32955"><g transform="translate(-99.156 -746.213)" stroke="#000"><path stroke-width="8" fill="none" d="M103.156 751.144h178.885v178.885H103.156z"/><circle cx="558.311" cy="840.238" r="90.025" stroke-width="8" fill="none"/><path d="M283.75 839.378h181.19" fill="none" stroke-width="8"/><path d="M380.613 843.378v91.165" fill="none" stroke-width="8.102"/><path d="M538.167 923.235c-30.194-7.691-54.676-31.638-62.523-61.158-10.567-39.744 9.954-82.62 47.745-99.754 11.235-5.095 21.217-7.14 34.843-7.14 15.129 0 24.777 2.277 38.745 9.145 9.09 4.47 12.494 6.984 21.23 15.685 9.13 9.095 11.11 11.822 16.182 22.283 7.447 15.36 9.855 26.782 8.988 42.641-1.958 35.824-25.68 66.082-60.55 77.228-10.228 3.27-33.805 3.835-44.66 1.07zM108.106 840.426v-84.897H277.901v169.794H108.106v-84.897z" stroke-width="9.116"/></g></svg>