<svg xmlns="http://www.w3.org/2000/svg" width="590.058" height="200.885" viewBox="0 0 553.17946 188.32955"><g transform="translate(-98.017 -69.201)" stroke="#000"><path stroke-width="8" fill="none" d="M102.017 74.133h178.885v178.885H102.017z"/><circle cx="557.171" cy="163.227" r="90.025" stroke-width="8" fill="none"/><path d="M282.61 162.366H463.8" fill="none" stroke-width="8"/><path d="M379.473 166.366v91.165" fill="none" stroke-width="8.102"/><path d="M537.027 246.223c-30.193-7.691-54.675-31.638-62.523-61.157-10.566-39.745 9.955-82.62 47.745-99.755 11.235-5.094 21.218-7.14 34.844-7.14 15.128 0 24.776 2.277 38.745 9.145 9.09 4.47 12.493 6.984 21.23 15.686 9.13 9.094 11.11 11.82 16.182 22.282 7.447 15.36 9.854 26.782 8.987 42.642-1.957 35.823-25.68 66.081-60.549 77.228-10.229 3.27-33.805 3.834-44.66 1.069z" stroke-width="9.116"/></g></svg>