<svg xmlns="http://www.w3.org/2000/svg" width="440" height="205"><path d="M98.04 135.6c-17.15-2.1-31.1-9.4-41.84-21.8-10.74-12.5-16.106-26.82-16.106-42.95 0-17.94 6.376-33.3 19.116-46.09C71.96 11.98 87.34 5.584 105.36 5.584c17.86 0 33.24 6.416 46.04 19.236 12.8 12.83 19.2 28.17 19.2 46.03 0 16.13-5.4 30.45-16.1 42.95-10.8 12.4-24.79 19.7-41.94 21.8v24.5h24.24v14.5h-24.24v24.2H98.04v-24.2H73.97v-14.5h24.07v-24.5m7.32-14c13.93 0 25.87-5 35.84-14.9 9.9-9.88 14.9-21.84 14.9-35.85 0-14-4.9-25.96-14.9-35.88-9.87-9.91-21.83-14.87-35.84-14.87-14 0-25.96 4.98-35.88 14.93-9.91 9.95-14.87 21.89-14.87 35.82 0 14.01 4.96 25.97 14.87 35.85 9.92 9.9 21.88 14.9 35.88 14.9z" stroke="#e67fff" stroke-miterlimit="2" fill="#e67fff"/><g><path d="M420.7 66.2h-14.5V46.14l-26.6 26.55c9.5 11.96 14.3 25.61 14.3 40.81 0 18-6.4 33.3-19.2 46.1-12.8 12.8-28.2 19.2-46.1 19.2-17.9 0-33.3-6.4-46.1-19.2-12.8-12.8-19.2-28.1-19.2-46.1 0-17.83 6.4-33.16 19.2-45.94 12.8-12.79 28.2-19.18 46.1-19.18 15.3 0 28.9 4.72 40.8 14.16L396 35.98h-20.1V21.47h44.8V66.2m-92.1 98.2c13.9 0 25.9-5 35.8-14.9 10-10 15-22 15-36s-5-25.94-14.9-35.85c-9.9-9.92-21.9-14.87-35.9-14.87-13.9 0-25.9 4.97-35.8 14.93-10 9.95-14.9 21.89-14.9 35.79 0 14 4.9 26 14.9 36 9.9 9.9 21.9 14.9 35.8 14.9z" stroke="#435ad4" stroke-miterlimit="2" fill="#435ad4"/></g></svg>