<svg xmlns="http://www.w3.org/2000/svg" xmlns:xlink="http://www.w3.org/1999/xlink" width="256" height="32" viewBox="0 0 256 32"><svg width="16" height="32" viewBox="0 0 16 32"><path fill="#444" d="M0 0h16v.5H0zM0 32h16v-.5H0z"/><path fill="#444" d="M0 0v32h.5V0zM16 0v32h-.5V0z"/><path fill="#444" d="M0 15.75h16v.5H0z"/></svg><svg width="16" height="32" viewBox="0 0 16 32" x="48"><path fill="#444" d="M0 0h16v.5H0zM0 32h16v-.5H0z"/><path fill="#444" d="M0 0v32h.5V0zM16 0v32h-.5V0z"/><path fill="#444" d="M0 15.75h16v.5H0z"/><path fill="#444" d="M0 16h16v16H0z"/></svg><svg width="16" height="32" viewBox="0 0 16 32" x="96"><path fill="#444" d="M0 0h16v.5H0zM0 32h16v-.5H0z"/><path fill="#444" d="M0 0v32h.5V0zM16 0v32h-.5V0z"/><path fill="#444" d="M0 15.75h16v.5H0z"/><path fill="#444" d="M0 16h16V0H0z"/></svg><svg width="16" height="32" viewBox="0 0 16 32" x="144"><path fill="#444" d="M0 0h16v32H0z"/></svg><svg width="16" height="32" viewBox="0 0 16 32" x="192"><path fill="#444" d="M10 8a2 2 0 1 1-3.999.001A2 2 0 0 1 10 8zM10 24a2 2 0 1 1-3.999.001A2 2 0 0 1 10 24z"/></svg></svg>